#!OML:ASF F:\VICON\USERDATA\INSTALL\rory3\rory3.ASF
:FULLY-SPECIFIED
:DEGREES
3995
root -3.35784 17.8091 10.8259 183.154 -231.741 545.716
lowerback 12.3166 1.9931 -0.36544
upperback 1.27735 2.72176 1.59274
thorax -5.65781 1.37664 1.4135
lowerneck -17.337 3.67876 -7.86735
upperneck 42.0426 9.74488 1.40309
head 18.2929 3.24141 4.11607
rclavicle -1.90833e-014 -1.98785e-014
rhumerus -35.4047 -8.27327 -77.4352
rradius 44.3891
rwrist 5.03733
rhand -15.3255 11.5734
rfingers 7.12502
rthumb 10.8508 -18.1263
lclavicle -1.90833e-014 -1.98785e-014
lhumerus -32.2809 1.04545 82.3744
lradius 35.7463
lwrist -0.477404
lhand -23.6289 21.0555
lfingers 7.12502
lthumb 2.83572 51.0164
rfemur -14.587 -7.22187 12.6803
rtibia 44.7432
rfoot -22.0148 1.87541
rtoes -6.87767
lfemur -10.4216 -3.73547 -22.0077
ltibia 23.1652
lfoot -9.41703 -8.91676
ltoes -6.33736
3996
root -3.32873 17.7999 10.8088 183.106 -232.11 545.608
lowerback 12.2847 1.96303 -0.322431
upperback 1.27358 2.6896 1.62012
thorax -5.6424 1.36035 1.42449
lowerneck -17.3555 3.65562 -7.88823
upperneck 42.0155 9.73345 1.37404
head 18.285 3.23167 4.10395
rclavicle -6.70898e-014 2.78299e-014
rhumerus -35.4145 -8.18798 -77.5761
rradius 44.4548
rwrist 5.12311
rhand -15.4158 11.4212
rfingers 7.12502
rthumb 10.7637 -18.2831
lclavicle -6.70898e-014 2.78299e-014
lhumerus -32.1805 1.07054 82.2494
lradius 35.6665
lwrist -0.627371
lhand -23.6581 21.6834
lfingers 7.12502
lthumb 2.80758 51.6446
rfemur -14.7295 -7.34412 13.4971
rtibia 44.8585
rfoot -22.4924 3.26876
rtoes -8.11225
lfemur -10.6996 -3.76621 -22.0463
ltibia 23.6454
lfoot -9.69293 -9.12952
ltoes -5.87608
3997
root -3.3003 17.7875 10.7918 183.118 -232.393 545.595
lowerback 12.2551 1.95838 -0.334294
upperback 1.26569 2.68155 1.61568
thorax -5.63435 1.35667 1.42869
lowerneck -17.26 3.65483 -7.86665
upperneck 41.91 9.73104 1.30697
head 18.2048 3.23531 4.05697
rclavicle -9.73051e-014 1.59028e-015
rhumerus -35.4773 -8.11683 -77.7011
rradius 44.6193
rwrist 5.04148
rhand -15.3864 11.1511
rfingers 7.12502
rthumb 10.792 -18.5517
lclavicle -9.73051e-014 1.59028e-015
lhumerus -32.2381 1.01787 82.1293
lradius 35.8258
lwrist -0.452761
lhand -23.8131 22.4079
lfingers 7.12502
lthumb 2.65789 52.3711
rfemur -14.8565 -7.32678 14.2545
rtibia 44.883
rfoot -22.8316 4.57888
rtoes -8.24422
lfemur -10.9499 -3.91901 -22.1499
ltibia 24.1225
lfoot -9.96688 -9.09417
ltoes -5.97869
3998
root -3.27295 17.7754 10.7775 183.063 -232.687 545.542
lowerback 12.2391 1.96066 -0.344744
upperback 1.28246 2.68428 1.63161
thorax -5.60911 1.35857 1.4516
lowerneck -17.321 3.61521 -7.96405
upperneck 41.94 9.69246 1.37889
head 18.2291 3.21301 4.10532
rclavicle -5.1684e-015 -3.18055e-015
rhumerus -35.5106 -8.13762 -77.8019
rradius 44.6864
rwrist 4.96382
rhand -15.2902 11.1896
rfingers 7.12502
rthumb 10.8848 -18.5083
lclavicle -5.1684e-015 -3.18055e-015
lhumerus -32.2921 1.17617 81.96
lradius 35.966
lwrist -0.318379
lhand -23.7465 22.5796
lfingers 7.12502
lthumb 2.72217 52.5419
rfemur -14.8846 -7.30027 15.0225
rtibia 44.8333
rfoot -23.0929 5.91609
rtoes -8.16635
lfemur -11.1474 -4.07135 -22.2147
ltibia 24.5698
lfoot -10.1982 -9.0914
ltoes -6.10941
3999
root -3.2451 17.7654 10.768 183.089 -232.976 545.575
lowerback 12.1901 1.98456 -0.379869
upperback 1.30227 2.7087 1.595
thorax -5.56149 1.37093 1.43071
lowerneck -17.3427 3.58641 -7.944
upperneck 41.9173 9.61877 1.43361
head 18.2212 3.1966 4.11382
rclavicle 7.7526e-015 1.03368e-014
rhumerus -35.5412 -8.28111 -77.9245
rradius 44.6411
rwrist 5.13907
rhand -15.0471 11.2468
rfingers 7.12502
rthumb 11.1193 -18.4386
lclavicle 7.7526e-015 1.03368e-014
lhumerus -32.2106 1.43352 81.6723
lradius 35.8721
lwrist -0.245661
lhand -23.6312 22.2099
lfingers 7.12502
lthumb 2.8335 52.1708
rfemur -14.8739 -7.18926 15.7282
rtibia 44.7395
rfoot -23.2795 6.96971
rtoes -9.38428
lfemur -11.326 -4.08003 -22.3215
ltibia 24.9723
lfoot -10.3955 -9.34265
ltoes -5.79869
4000
root -3.21856 17.7563 10.7596 183.192 -233.218 545.682
lowerback 12.1116 2.00079 -0.463678
upperback 1.32208 2.71586 1.55105
thorax -5.49885 1.37574 1.43347
lowerneck -17.2654 3.60983 -7.91804
upperneck 41.8283 9.60926 1.47064
head 18.1443 3.21172 4.11423
rclavicle 2.48481e-014 1.19271e-014
rhumerus -35.5824 -8.23346 -78.0777
rradius 44.6349
rwrist 5.28556
rhand -15.06 11.2979
rfingers 7.12502
rthumb 11.1069 -18.3882
lclavicle 2.48481e-014 1.19271e-014
lhumerus -32.082 1.78045 81.3049
lradius 35.6541
lwrist -0.151173
lhand -23.4009 21.3816
lfingers 7.12502
lthumb 3.05596 51.3394
rfemur -14.8534 -6.79966 16.3924
rtibia 44.5871
rfoot -23.2805 7.6728
rtoes -11.1074
lfemur -11.5301 -3.79663 -22.4694
ltibia 25.3599
lfoot -10.6938 -9.84996
ltoes -6.13118
4001
root -3.19023 17.7473 10.7492 183.298 -233.398 545.817
lowerback 12.0386 2.00141 -0.578716
upperback 1.3462 2.70017 1.5351
thorax -5.43688 1.37032 1.48694
lowerneck -17.1709 3.66707 -7.88867
upperneck 41.7212 9.69854 1.39253
head 18.0588 3.25162 4.07708
rclavicle -2.83268e-014 7.15625e-015
rhumerus -35.5799 -7.76497 -78.282
rradius 44.6108
rwrist 5.06841
rhand -15.3294 11.2118
rfingers 7.12502
rthumb 10.8471 -18.4881
lclavicle -2.83268e-014 7.15625e-015
lhumerus -32.0574 2.18602 81.0342
lradius 35.5942
lwrist -0.0139405
lhand -23.2848 20.9451
lfingers 7.12502
lthumb 3.16808 50.9013
rfemur -14.8142 -6.43078 16.9928
rtibia 44.3941
rfoot -23.0626 8.3228
rtoes -12.1206
lfemur -11.6827 -3.60623 -22.6299
ltibia 25.7144
lfoot -10.9854 -10.1237
ltoes -6.63171
